{
  "accessors": [
    {
      "bufferView": 2,
      "componentType": 5126,
      "count": 2537,
      "max": [
        0.87085998058319092,
        0.8650360107421875,
        0.96922802925109863
      ],
      "min": [
        -0.87333101034164429,
        -0.72149401903152466,
        -0.96329802274703979
      ],
      "type": "VEC3"
    },
    {
      "bufferView": 2,
      "byteOffset": 30444,
      "componentType": 5126,
      "count": 2537,
      "max": [
        0.99999600648880005,
        0.99995237588882446,
        0.99993902444839478
      ],
      "min": [
        -0.99998486042022705,
        -0.99999547004699707,
        -0.99993222951889038
      ],
      "type": "VEC3"
    },
    {
      "bufferView": 3,
      "componentType": 5126,
      "count": 2537,
      "max": [
        0.9997064471244812,
        1,
        0.99999988079071045,
        1
      ],
      "min": [
        -0.99944370985031128,
        -0.99999988079071045,
        -0.9999992847442627,
        -1
      ],
      "type": "VEC4"
    },
    {
      "bufferView": 2,
      "byteOffset": 60888,
      "componentType": 5126,
      "count": 2537,
      "max": [
        1,
        1,
        1
      ],
      "min": [
        1,
        1,
        1
      ],
      "type": "VEC3"
    },
    {
      "bufferView": 1,
      "componentType": 5126,
      "count": 2537,
      "max": [
        0.99208700656890869,
        0.97571301460266113
      ],
      "min": [
        0.023723600432276726,
        0.019683700054883957
      ],
      "type": "VEC2"
    },
    {
      "bufferView": 0,
      "componentType": 5125,
      "count": 10296,
      "max": [
        2536
      ],
      "min": [
        0
      ],
      "type": "SCALAR"
    },
    {
      "bufferView": 2,
      "byteOffset": 91332,
      "componentType": 5126,
      "count": 340,
      "max": [
        0.89479601383209229,
        0.8825410008430481,
        1
      ],
      "min": [
        -0.89479601383209229,
        -0.67559301853179932,
        -1
      ],
      "type": "VEC3"
    },
    {
      "bufferView": 2,
      "byteOffset": 95412,
      "componentType": 5126,
      "count": 340,
      "max": [
        0.99897778034210205,
        0.99896657466888428,
        0.99892878532409668
      ],
      "min": [
        -0.9989778995513916,
        -0.98966997861862183,
        -0.99892878532409668
      ],
      "type": "VEC3"
    },
    {
      "bufferView": 3,
      "byteOffset": 40592,
      "componentType": 5126,
      "count": 340,
      "max": [
        0.99989813566207886,
        0.99065369367599487,
        0.99777960777282715,
        1
      ],
      "min": [
        -0.99344754219055176,
        -0.99522072076797485,
        -0.99757349491119385,
        1
      ],
      "type": "VEC4"
    },
    {
      "bufferView": 1,
      "byteOffset": 20296,
      "componentType": 5126,
      "count": 340,
      "max": [
        0.85229200124740601,
        0.93442797660827637
      ],
      "min": [
        0.062247499823570251,
        0.019683700054883957
      ],
      "type": "VEC2"
    },
    {
      "bufferView": 0,
      "byteOffset": 41184,
      "componentType": 5125,
      "count": 1440,
      "max": [
        339
      ],
      "min": [
        0
      ],
      "type": "SCALAR"
    },
    {
      "bufferView": 2,
      "byteOffset": 99492,
      "componentType": 5126,
      "count": 4698,
      "max": [
        0.81046801805496216,
        0.77519100904464722,
        0.95586597919464111
      ],
      "min": [
        -0.82551097869873047,
        -0.8825410008430481,
        -0.92938697338104248
      ],
      "type": "VEC3"
    },
    {
      "bufferView": 2,
      "byteOffset": 155868,
      "componentType": 5126,
      "count": 4698,
      "max": [
        0.9999966025352478,
        0.99999326467514038,
        0.99997937679290771
      ],
      "min": [
        -0.99999266862869263,
        -0.99999302625656128,
        -0.99999111890792847
      ],
      "type": "VEC3"
    },
    {
      "bufferView": 3,
      "byteOffset": 46032,
      "componentType": 5126,
      "count": 4698,
      "max": [
        1,
        0.99999833106994629,
        1,
        1
      ],
      "min": [
        -0.98784029483795166,
        -1,
        -0.99999970197677612,
        -1
      ],
      "type": "VEC4"
    },
    {
      "bufferView": 2,
      "byteOffset": 212244,
      "componentType": 5126,
      "count": 4698,
      "max": [
        1,
        1,
        1
      ],
      "min": [
        1,
        1,
        1
      ],
      "type": "VEC3"
    },
    {
      "bufferView": 1,
      "byteOffset": 23016,
      "componentType": 5126,
      "count": 4698,
      "max": [
        0.9754520058631897,
        0.99280202388763428
      ],
      "min": [
        0.020434999838471413,
        0.019683700054883957
      ],
      "type": "VEC2"
    },
    {
      "bufferView": 0,
      "byteOffset": 46944,
      "componentType": 5125,
      "count": 19536,
      "max": [
        4697
      ],
      "min": [
        0
      ],
      "type": "SCALAR"
    }
  ],
  "asset": {
    "extras": {
      "author": "ChaClosebeta (https://sketchfab.com/ChaClosebeta)",
      "license": "CC-BY-4.0 (http://creativecommons.org/licenses/by/4.0/)",
      "source": "https://sketchfab.com/3d-models/box-stylized-0f71f7bfd3214358a79f31d9d8736fd0",
      "title": "Box Stylized"
    },
    "generator": "Sketchfab-4.86.2",
    "version": "2.0"
  },
  "bufferViews": [
    {
      "buffer": 0,
      "byteLength": 125088,
      "byteOffset": 0,
      "name": "floatBufferViews",
      "target": 34963
    },
    {
      "buffer": 0,
      "byteLength": 60600,
      "byteOffset": 125088,
      "byteStride": 8,
      "name": "floatBufferViews",
      "target": 34962
    },
    {
      "buffer": 0,
      "byteLength": 268620,
      "byteOffset": 185688,
      "byteStride": 12,
      "name": "floatBufferViews",
      "target": 34962
    },
    {
      "buffer": 0,
      "byteLength": 121200,
      "byteOffset": 454308,
      "byteStride": 16,
      "name": "floatBufferViews",
      "target": 34962
    }
  ],
  "buffers": [
    {
      "byteLength": 575508,
      "uri": "scene.bin"
    }
  ],
  "images": [
    {
      "uri": "textures/material_metallicRoughness.png"
    },
    {
      "uri": "textures/material_normal.png"
    },
    {
      "uri": "textures/material_baseColor.jpeg"
    }
  ],
  "materials": [
    {
      "doubleSided": true,
      "name": "material",
      "normalTexture": {
        "index": 1,
        "scale": 1,
        "texCoord": 0
      },
      "occlusionTexture": {
        "index": 0,
        "strength": 1,
        "texCoord": 0
      },
      "pbrMetallicRoughness": {
        "baseColorFactor": [
          1,
          1,
          1,
          1
        ],
        "baseColorTexture": {
          "index": 2,
          "texCoord": 0
        },
        "metallicFactor": 1,
        "metallicRoughnessTexture": {
          "index": 0,
          "texCoord": 0
        },
        "roughnessFactor": 1
      }
    }
  ],
  "meshes": [
    {
      "name": "defaultMaterial",
      "primitives": [
        {
          "attributes": {
            "COLOR_0": 3,
            "NORMAL": 1,
            "POSITION": 0,
            "TANGENT": 2,
            "TEXCOORD_0": 4
          },
          "indices": 5,
          "material": 0,
          "mode": 4
        }
      ]
    },
    {
      "name": "defaultMaterial",
      "primitives": [
        {
          "attributes": {
            "NORMAL": 7,
            "POSITION": 6,
            "TANGENT": 8,
            "TEXCOORD_0": 9
          },
          "indices": 10,
          "material": 0,
          "mode": 4
        }
      ]
    },
    {
      "name": "defaultMaterial",
      "primitives": [
        {
          "attributes": {
            "COLOR_0": 14,
            "NORMAL": 12,
            "POSITION": 11,
            "TANGENT": 13,
            "TEXCOORD_0": 15
          },
          "indices": 16,
          "material": 0,
          "mode": 4
        }
      ]
    }
  ],
  "nodes": [
    {
      "children": [
        1
      ],
      "name": "RootNode (gltf orientation matrix)",
      "rotation": [
        -0.70710678118654746,
        -0,
        -0,
        0.70710678118654757
      ]
    },
    {
      "children": [
        2
      ],
      "name": "RootNode (model correction matrix)"
    },
    {
      "children": [
        3,
        5,
        7
      ],
      "matrix": [
        1,
        0,
        0,
        0,
        0,
        -4.3711390063094768e-08,
        0.999999999999999,
        0,
        0,
        -0.999999999999999,
        -4.3711390063094768e-08,
        0,
        0,
        0,
        0,
        1
      ],
      "name": "Collada visual scene group"
    },
    {
      "children": [
        4
      ],
      "name": "Metal_low"
    },
    {
      "mesh": 0,
      "name": "defaultMaterial"
    },
    {
      "children": [
        6
      ],
      "name": "Bolt_Low"
    },
    {
      "mesh": 1,
      "name": "defaultMaterial"
    },
    {
      "children": [
        8
      ],
      "name": "Wood_Low"
    },
    {
      "mesh": 2,
      "name": "defaultMaterial"
    }
  ],
  "samplers": [
    {
      "magFilter": 9729,
      "minFilter": 9987,
      "wrapS": 10497,
      "wrapT": 10497
    }
  ],
  "scene": 0,
  "scenes": [
    {
      "name": "OSG_Scene",
      "nodes": [
        0
      ]
    }
  ],
  "textures": [
    {
      "sampler": 0,
      "source": 0
    },
    {
      "sampler": 0,
      "source": 1
    },
    {
      "sampler": 0,
      "source": 2
    }
  ]
}

