{
  "accessors": [
    {
      "bufferView": 2,
      "componentType": 5126,
      "count": 1513,
      "max": [
        -0.057376798242330551,
        0.1670369952917099,
        0.03007039986550808
      ],
      "min": [
        -0.63150900602340698,
        0.055399898439645767,
        -0.045784600079059601
      ],
      "type": "VEC3"
    },
    {
      "bufferView": 2,
      "byteOffset": 18156,
      "componentType": 5126,
      "count": 1513,
      "max": [
        1,
        1,
        1
      ],
      "min": [
        -1,
        -1,
        -1
      ],
      "type": "VEC3"
    },
    {
      "bufferView": 3,
      "componentType": 5126,
      "count": 1513,
      "max": [
        1,
        1,
        1,
        1
      ],
      "min": [
        -1,
        -1,
        -1,
        1
      ],
      "type": "VEC4"
    },
    {
      "bufferView": 1,
      "componentType": 5126,
      "count": 1513,
      "max": [
        0.99336099624633789,
        0.97469502687454224
      ],
      "min": [
        0.017962299287319183,
        0.014385100454092026
      ],
      "type": "VEC2"
    },
    {
      "bufferView": 0,
      "componentType": 5125,
      "count": 4332,
      "max": [
        1512
      ],
      "min": [
        0
      ],
      "type": "SCALAR"
    },
    {
      "bufferView": 2,
      "byteOffset": 36312,
      "componentType": 5126,
      "count": 294,
      "max": [
        0.15205200016498566,
        0.11457300186157227,
        0.020317599177360535
      ],
      "min": [
        0.0055215698666870594,
        -0.20787900686264038,
        -0.036031901836395264
      ],
      "type": "VEC3"
    },
    {
      "bufferView": 2,
      "byteOffset": 39840,
      "componentType": 5126,
      "count": 294,
      "max": [
        0.99917411804199219,
        1,
        1
      ],
      "min": [
        -1,
        -0.97668689489364624,
        -1
      ],
      "type": "VEC3"
    },
    {
      "bufferView": 3,
      "byteOffset": 24208,
      "componentType": 5126,
      "count": 294,
      "max": [
        1,
        1,
        1,
        1
      ],
      "min": [
        -1,
        -0.44133773446083069,
        -0.94730335474014282,
        1
      ],
      "type": "VEC4"
    },
    {
      "bufferView": 1,
      "byteOffset": 12104,
      "componentType": 5126,
      "count": 294,
      "max": [
        0.97768497467041016,
        0.965628981590271
      ],
      "min": [
        0.030127000063657761,
        0.015037599951028824
      ],
      "type": "VEC2"
    },
    {
      "bufferView": 0,
      "byteOffset": 17328,
      "componentType": 5125,
      "count": 984,
      "max": [
        293
      ],
      "min": [
        0
      ],
      "type": "SCALAR"
    },
    {
      "bufferView": 2,
      "byteOffset": 43368,
      "componentType": 5126,
      "count": 8682,
      "max": [
        0.50940197706222534,
        0.20788000524044037,
        0.083820201456546783
      ],
      "min": [
        -0.81303501129150391,
        -0.17770400643348694,
        -0.083820201456546783
      ],
      "type": "VEC3"
    },
    {
      "bufferView": 2,
      "byteOffset": 147552,
      "componentType": 5126,
      "count": 8682,
      "max": [
        1,
        1,
        1
      ],
      "min": [
        -1,
        -1,
        -1
      ],
      "type": "VEC3"
    },
    {
      "bufferView": 3,
      "byteOffset": 28912,
      "componentType": 5126,
      "count": 8682,
      "max": [
        1,
        1,
        1,
        1
      ],
      "min": [
        -1,
        -1,
        -1,
        -1
      ],
      "type": "VEC4"
    },
    {
      "bufferView": 1,
      "byteOffset": 14456,
      "componentType": 5126,
      "count": 8682,
      "max": [
        0.98997902870178223,
        0.9951140284538269
      ],
      "min": [
        0.0075742597691714764,
        0.0051689101383090019
      ],
      "type": "VEC2"
    },
    {
      "bufferView": 0,
      "byteOffset": 21264,
      "componentType": 5125,
      "count": 27762,
      "max": [
        8681
      ],
      "min": [
        0
      ],
      "type": "SCALAR"
    },
    {
      "bufferView": 2,
      "byteOffset": 251736,
      "componentType": 5126,
      "count": 492,
      "max": [
        1,
        0.14855700731277466,
        0.032988600432872772
      ],
      "min": [
        0.47964099049568176,
        -0.13736499845981598,
        -0.048702899366617203
      ],
      "type": "VEC3"
    },
    {
      "bufferView": 2,
      "byteOffset": 257640,
      "componentType": 5126,
      "count": 492,
      "max": [
        0.99973523616790771,
        0.96751463413238525,
        1
      ],
      "min": [
        -1,
        -0.99453866481781006,
        -1
      ],
      "type": "VEC3"
    },
    {
      "bufferView": 3,
      "byteOffset": 167824,
      "componentType": 5126,
      "count": 492,
      "max": [
        0.99453866481781006,
        1,
        1,
        1
      ],
      "min": [
        -1,
        -0.98379898071289062,
        -1,
        -1
      ],
      "type": "VEC4"
    },
    {
      "bufferView": 1,
      "byteOffset": 83912,
      "componentType": 5126,
      "count": 492,
      "max": [
        0.98358899354934692,
        0.9833260178565979
      ],
      "min": [
        0.021960200741887093,
        0.022527800872921944
      ],
      "type": "VEC2"
    },
    {
      "bufferView": 0,
      "byteOffset": 132312,
      "componentType": 5125,
      "count": 1824,
      "max": [
        491
      ],
      "min": [
        0
      ],
      "type": "SCALAR"
    },
    {
      "bufferView": 2,
      "byteOffset": 263544,
      "componentType": 5126,
      "count": 2144,
      "max": [
        -0.79988497495651245,
        0.11807399988174438,
        0.015242000110447407
      ],
      "min": [
        -1.0937900543212891,
        0.071877598762512207,
        -0.030954699963331223
      ],
      "type": "VEC3"
    },
    {
      "bufferView": 2,
      "byteOffset": 289272,
      "componentType": 5126,
      "count": 2144,
      "max": [
        1,
        1,
        1
      ],
      "min": [
        -1,
        -1,
        -1
      ],
      "type": "VEC3"
    },
    {
      "bufferView": 3,
      "byteOffset": 175696,
      "componentType": 5126,
      "count": 2144,
      "max": [
        1,
        0.99998712539672852,
        1,
        1
      ],
      "min": [
        -1,
        -0.99998712539672852,
        -0.99999922513961792,
        1
      ],
      "type": "VEC4"
    },
    {
      "bufferView": 1,
      "byteOffset": 87848,
      "componentType": 5126,
      "count": 2144,
      "max": [
        0.96415197849273682,
        0.98034900426864624
      ],
      "min": [
        0.086860403418540955,
        0.027239300310611725
      ],
      "type": "VEC2"
    },
    {
      "bufferView": 0,
      "byteOffset": 139608,
      "componentType": 5125,
      "count": 7680,
      "max": [
        2143
      ],
      "min": [
        0
      ],
      "type": "SCALAR"
    }
  ],
  "asset": {
    "extras": {
      "author": "The Unknown... (https://sketchfab.com/1514112)",
      "license": "CC-BY-4.0 (http://creativecommons.org/licenses/by/4.0/)",
      "source": "https://sketchfab.com/3d-models/fn-fal-7f548d1f79f7418fad852f3d7293ec2c",
      "title": "FN FAL"
    },
    "generator": "Sketchfab-10.15.0",
    "version": "2.0"
  },
  "bufferViews": [
    {
      "buffer": 0,
      "byteLength": 170328,
      "byteOffset": 0,
      "name": "floatBufferViews",
      "target": 34963
    },
    {
      "buffer": 0,
      "byteLength": 105000,
      "byteOffset": 170328,
      "byteStride": 8,
      "name": "floatBufferViews",
      "target": 34962
    },
    {
      "buffer": 0,
      "byteLength": 315000,
      "byteOffset": 275328,
      "byteStride": 12,
      "name": "floatBufferViews",
      "target": 34962
    },
    {
      "buffer": 0,
      "byteLength": 210000,
      "byteOffset": 590328,
      "byteStride": 16,
      "name": "floatBufferViews",
      "target": 34962
    }
  ],
  "buffers": [
    {
      "byteLength": 800328,
      "uri": "scene.bin"
    }
  ],
  "images": [
    {
      "uri": "textures/material_baseColor.jpeg"
    },
    {
      "uri": "textures/material_metallicRoughness.png"
    },
    {
      "uri": "textures/material_normal.png"
    },
    {
      "uri": "textures/stock_baseColor.jpeg"
    },
    {
      "uri": "textures/stock_metallicRoughness.png"
    },
    {
      "uri": "textures/stock_normal.png"
    },
    {
      "uri": "textures/gunbody_baseColor.jpeg"
    },
    {
      "uri": "textures/gunbody_metallicRoughness.png"
    },
    {
      "uri": "textures/gunbody_normal.png"
    },
    {
      "uri": "textures/material_3_baseColor.jpeg"
    },
    {
      "uri": "textures/material_3_metallicRoughness.png"
    },
    {
      "uri": "textures/material_3_normal.png"
    },
    {
      "uri": "textures/foreend_baseColor.jpeg"
    },
    {
      "uri": "textures/foreend_metallicRoughness.png"
    },
    {
      "uri": "textures/foreend_normal.png"
    }
  ],
  "materials": [
    {
      "doubleSided": true,
      "name": "material",
      "normalTexture": {
        "index": 2,
        "scale": 1,
        "texCoord": 0
      },
      "occlusionTexture": {
        "index": 1,
        "strength": 1,
        "texCoord": 0
      },
      "pbrMetallicRoughness": {
        "baseColorFactor": [
          0.050351434008840575,
          0.050351434008840575,
          0.050351434008840575,
          1
        ],
        "baseColorTexture": {
          "index": 0,
          "texCoord": 0
        },
        "metallicFactor": 1,
        "metallicRoughnessTexture": {
          "index": 1,
          "texCoord": 0
        },
        "roughnessFactor": 1
      }
    },
    {
      "doubleSided": true,
      "name": "stock",
      "normalTexture": {
        "index": 5,
        "scale": 1,
        "texCoord": 0
      },
      "occlusionTexture": {
        "index": 4,
        "strength": 1,
        "texCoord": 0
      },
      "pbrMetallicRoughness": {
        "baseColorFactor": [
          1,
          1,
          1,
          1
        ],
        "baseColorTexture": {
          "index": 3,
          "texCoord": 0
        },
        "metallicFactor": 1,
        "metallicRoughnessTexture": {
          "index": 4,
          "texCoord": 0
        },
        "roughnessFactor": 1
      }
    },
    {
      "doubleSided": true,
      "name": "gunbody",
      "normalTexture": {
        "index": 8,
        "scale": 1,
        "texCoord": 0
      },
      "occlusionTexture": {
        "index": 7,
        "strength": 1,
        "texCoord": 0
      },
      "pbrMetallicRoughness": {
        "baseColorFactor": [
          0.050351434008840575,
          0.050351434008840575,
          0.050351434008840575,
          1
        ],
        "baseColorTexture": {
          "index": 6,
          "texCoord": 0
        },
        "metallicFactor": 1,
        "metallicRoughnessTexture": {
          "index": 7,
          "texCoord": 0
        },
        "roughnessFactor": 1
      }
    },
    {
      "doubleSided": true,
      "name": "material_3",
      "normalTexture": {
        "index": 11,
        "scale": 1,
        "texCoord": 0
      },
      "occlusionTexture": {
        "index": 10,
        "strength": 1,
        "texCoord": 0
      },
      "pbrMetallicRoughness": {
        "baseColorFactor": [
          0.050351434008840575,
          0.050351434008840575,
          0.050351434008840575,
          1
        ],
        "baseColorTexture": {
          "index": 9,
          "texCoord": 0
        },
        "metallicFactor": 1,
        "metallicRoughnessTexture": {
          "index": 10,
          "texCoord": 0
        },
        "roughnessFactor": 0.47596355544205898
      }
    },
    {
      "doubleSided": true,
      "name": "foreend",
      "normalTexture": {
        "index": 14,
        "scale": 1,
        "texCoord": 0
      },
      "occlusionTexture": {
        "index": 13,
        "strength": 1,
        "texCoord": 0
      },
      "pbrMetallicRoughness": {
        "baseColorFactor": [
          1,
          1,
          1,
          1
        ],
        "baseColorTexture": {
          "index": 12,
          "texCoord": 0
        },
        "metallicFactor": 1,
        "metallicRoughnessTexture": {
          "index": 13,
          "texCoord": 0
        },
        "roughnessFactor": 1
      }
    }
  ],
  "meshes": [
    {
      "name": "defaultMaterial",
      "primitives": [
        {
          "attributes": {
            "NORMAL": 1,
            "POSITION": 0,
            "TANGENT": 2,
            "TEXCOORD_0": 3
          },
          "indices": 4,
          "material": 4,
          "mode": 4
        }
      ]
    },
    {
      "name": "defaultMaterial",
      "primitives": [
        {
          "attributes": {
            "NORMAL": 6,
            "POSITION": 5,
            "TANGENT": 7,
            "TEXCOORD_0": 8
          },
          "indices": 9,
          "material": 3,
          "mode": 4
        }
      ]
    },
    {
      "name": "defaultMaterial",
      "primitives": [
        {
          "attributes": {
            "NORMAL": 11,
            "POSITION": 10,
            "TANGENT": 12,
            "TEXCOORD_0": 13
          },
          "indices": 14,
          "material": 2,
          "mode": 4
        }
      ]
    },
    {
      "name": "defaultMaterial",
      "primitives": [
        {
          "attributes": {
            "NORMAL": 16,
            "POSITION": 15,
            "TANGENT": 17,
            "TEXCOORD_0": 18
          },
          "indices": 19,
          "material": 1,
          "mode": 4
        }
      ]
    },
    {
      "name": "defaultMaterial",
      "primitives": [
        {
          "attributes": {
            "NORMAL": 21,
            "POSITION": 20,
            "TANGENT": 22,
            "TEXCOORD_0": 23
          },
          "indices": 24,
          "material": 0,
          "mode": 4
        }
      ]
    }
  ],
  "nodes": [
    {
      "children": [
        1
      ],
      "name": "RootNode (gltf orientation matrix)",
      "rotation": [
        -0.70710678118654746,
        -0,
        -0,
        0.70710678118654757
      ]
    },
    {
      "children": [
        2
      ],
      "name": "RootNode (model correction matrix)"
    },
    {
      "children": [
        3,
        5,
        7,
        9,
        11
      ],
      "matrix": [
        1,
        0,
        0,
        0,
        0,
        -4.3711390063094768e-08,
        0.999999999999999,
        0,
        0,
        -0.999999999999999,
        -4.3711390063094768e-08,
        0,
        0,
        0,
        0,
        1
      ],
      "name": "Collada visual scene group"
    },
    {
      "children": [
        4
      ],
      "name": "Cube.003"
    },
    {
      "mesh": 0,
      "name": "defaultMaterial"
    },
    {
      "children": [
        6
      ],
      "name": "Cube.001"
    },
    {
      "mesh": 1,
      "name": "defaultMaterial"
    },
    {
      "children": [
        8
      ],
      "name": "Cube.000"
    },
    {
      "mesh": 2,
      "name": "defaultMaterial"
    },
    {
      "children": [
        10
      ],
      "name": "Cube.005"
    },
    {
      "mesh": 3,
      "name": "defaultMaterial"
    },
    {
      "children": [
        12
      ],
      "name": "Cylinder"
    },
    {
      "mesh": 4,
      "name": "defaultMaterial"
    }
  ],
  "samplers": [
    {
      "magFilter": 9729,
      "minFilter": 9987,
      "wrapS": 10497,
      "wrapT": 10497
    }
  ],
  "scene": 0,
  "scenes": [
    {
      "name": "OSG_Scene",
      "nodes": [
        0
      ]
    }
  ],
  "textures": [
    {
      "sampler": 0,
      "source": 0
    },
    {
      "sampler": 0,
      "source": 1
    },
    {
      "sampler": 0,
      "source": 2
    },
    {
      "sampler": 0,
      "source": 3
    },
    {
      "sampler": 0,
      "source": 4
    },
    {
      "sampler": 0,
      "source": 5
    },
    {
      "sampler": 0,
      "source": 6
    },
    {
      "sampler": 0,
      "source": 7
    },
    {
      "sampler": 0,
      "source": 8
    },
    {
      "sampler": 0,
      "source": 9
    },
    {
      "sampler": 0,
      "source": 10
    },
    {
      "sampler": 0,
      "source": 11
    },
    {
      "sampler": 0,
      "source": 12
    },
    {
      "sampler": 0,
      "source": 13
    },
    {
      "sampler": 0,
      "source": 14
    }
  ]
}

